HIERARCHY
ROOT Hips
{
  OFFSET 0 0 0
  CHANNELS 6 Xposition Yposition Zposition Zrotation Yrotation Xrotation
  JOINT LeftThigh
  {
    OFFSET 8.409438 0 -5.917753
    CHANNELS 3 Zrotation Yrotation Xrotation
    JOINT LeftLeg
    {
      OFFSET 0 0 -42.358652
      CHANNELS 3 Zrotation Yrotation Xrotation
      JOINT LeftFoot
      {
        OFFSET 0 0 -39.357303
        CHANNELS 3 Zrotation Yrotation Xrotation
      }
    }
  }
  JOINT RightThigh
  {
    OFFSET -8.409438 0 -5.917753
    CHANNELS 3 Zrotation Yrotation Xrotation
    JOINT RightLeg
    {
      OFFSET 0 0 -42.358652
      CHANNELS 3 Zrotation Yrotation Xrotation
      JOINT RightFoot
      {
        OFFSET 0 0 -39.357303
        CHANNELS 3 Zrotation Yrotation Xrotation
      }
    }
  }
  JOINT SpineLow
  {
    OFFSET 0 0 4.719101
    CHANNELS 3 Zrotation Yrotation Xrotation
    JOINT SpineMid
    {
      OFFSET 0 0 12.899191
      CHANNELS 3 Zrotation Yrotation Xrotation
      JOINT Chest
      {
        OFFSET 0 0 12.899191
        CHANNELS 3 Zrotation Yrotation Xrotation
        JOINT LeftShoulder
        {
          OFFSET 7.550562 1.41573 9.438202
          CHANNELS 3 Zrotation Yrotation Xrotation
          JOINT LeftArm
          {
            OFFSET 9.155056 0 4.247191
            CHANNELS 3 Zrotation Yrotation Xrotation
            JOINT LeftForearm
            {
              OFFSET 0 0 25.771955
              CHANNELS 3 Zrotation Yrotation Xrotation
              JOINT LeftHand
              {
                OFFSET 0 0 25.197169
                CHANNELS 3 Zrotation Yrotation Xrotation
              }
            }
          }
        }
        JOINT RightShoulder
        {
          OFFSET -7.550562 1.41573 9.438202
          CHANNELS 3 Zrotation Yrotation Xrotation
          JOINT RightArm
          {
            OFFSET -9.155056 0 4.247191
            CHANNELS 3 Zrotation Yrotation Xrotation
            JOINT RightForearm
            {
              OFFSET 0 0 -25.771955
              CHANNELS 3 Zrotation Yrotation Xrotation
              JOINT RightHand
              {
                OFFSET 0 0 -25.197169
                CHANNELS 3 Zrotation Yrotation Xrotation
              }
            }
          }
        }
        JOINT Neck
        {
          OFFSET 0 0 15.101124
          CHANNELS 3 Zrotation Yrotation Xrotation
          JOINT Head
          {
            OFFSET 0 0 11.325843
            CHANNELS 3 Zrotation Yrotation Xrotation
            End Site
            {
              OFFSET 0 0 14.157303
            }
          }
        }
      }
    }
  }
}
MOTION
Frames: 10
Frame Time: 0.0
0.0  89.887642  0.0  -0.635213  -2.196954  -125.517886  4.667841  -11.390781  20.150762  -14.654818  11.590115  24.229174  -3.687017  1.248181  1.027353  23.260754  11.900525  -80.865779  -17.484303  11.861943  114.320946  10.512817  7.879803  3.492223  0.392099  -1.429314  3.712904  0.850505  -3.956355  10.136509  0.850505  -3.956355  10.136509  -19.522429  36.695407  15.665798  -151.152964  55.063674  -88.777695  -19.947087  -23.16902  39.034114  71.879852  13.121346  41.367316  10.493858  15.129185  33.042519  24.704409  30.295876  -13.316962  -36.83362  34.321832  -81.509262  67.934755  -31.074009  36.627503  -32.301755  3.897293  9.030254  -24.28078  2.453816  6.999936  
0.0  89.887642  0.0  -0.404644  -2.885607  -125.101765  5.042758  -11.295773  19.809655  -14.73953  11.506144  23.959564  -3.59343  1.29679  1.077439  22.763633  11.921453  -80.418462  -17.645972  9.706579  115.64183  8.980204  8.004235  2.968515  0.433677  -1.349538  3.757852  0.973556  -3.745801  10.257228  0.973556  -3.745802  10.257228  -19.699479  36.02452  15.038678  -150.617112  54.830141  -88.871745  -20.098028  -23.079353  40.02468  71.295079  13.411364  41.269783  10.818905  14.640822  32.649948  24.907286  30.321782  -13.634828  -37.011335  33.549029  -81.937238  68.818967  -30.236594  37.371304  -31.858754  3.514826  9.073364  -23.944967  2.170045  7.009264  
0.0  89.887642  0.0  -0.159779  -3.716421  -125.110225  5.334612  -11.253005  19.866512  -14.609372  11.377947  23.795738  -3.52558  1.358656  1.135793  22.371533  11.615881  -79.593058  -17.368435  8.842305  116.612307  8.827304  8.197202  2.992482  0.498928  -1.305285  3.868832  1.152221  -3.636954  10.55741  1.152221  -3.636954  10.55741  -20.033196  35.494684  14.389223  -150.089617  54.849074  -88.714528  -20.635922  -22.982367  40.918058  70.575216  14.199771  40.949187  10.503468  14.580896  31.985381  25.30522  30.255216  -13.988861  -36.60503  32.217234  -82.301815  70.262787  -29.227238  38.039441  -31.531912  3.185855  9.004083  -23.695848  1.930772  6.938073  
0.0  89.887642  0.0  0.094539  -4.626386  -125.211994  5.509843  -11.161563  19.936189  -14.379514  11.261901  23.692169  -3.342774  1.448218  1.235317  21.958613  11.062608  -78.676836  -16.916632  8.044321  117.656813  8.672093  8.388891  3.014487  0.551453  -1.282834  3.915347  1.296501  -3.58493  10.681938  1.296501  -3.58493  10.681938  -20.047816  35.215374  14.247315  -149.706716  54.689729  -88.761814  -21.274517  -22.839165  41.933602  69.958014  14.995513  40.483287  10.42406  14.425661  31.928451  25.87833  30.290792  -14.305349  -36.255501  30.708322  -82.59969  72.016569  -28.101458  38.590999  -31.112503  3.139153  9.093717  -23.381363  1.897112  7.000355  
0.0  89.887642  0.0  0.376985  -5.610008  -125.246961  5.715841  -11.115336  19.916432  -14.027426  11.173006  23.681087  -3.24341  1.52401  1.278239  21.42345  10.495876  -77.851489  -16.341295  7.271359  118.81922  8.591686  8.579513  3.030401  0.632686  -1.261288  3.949504  1.519665  -3.539999  10.77118  1.519665  -3.539999  10.771179  -20.183014  34.918101  14.104918  -149.299068  54.56477  -88.782803  -21.996085  -22.656401  42.95795  69.606851  15.555461  39.881126  10.072046  14.373113  31.786364  26.433056  30.31147  -14.664723  -35.675446  29.341008  -83.022349  73.550016  -27.042681  38.993051  -30.815814  3.068235  9.154687  -23.158438  1.844997  7.040738  
0.0  89.887642  0.0  0.680384  -6.659686  -125.113925  6.022682  -11.081355  19.678237  -13.630869  11.137721  23.711291  -3.131406  1.545435  1.329717  20.83576  9.864255  -77.193335  -16.115246  5.127781  120.502786  7.080116  8.550425  2.510696  0.696864  -1.217555  3.972437  1.700546  -3.431783  10.831066  1.700546  -3.431783  10.831066  -20.203152  34.512533  13.888709  -148.897661  54.353039  -88.809488  -22.557929  -22.586286  43.973691  69.439955  15.81111  39.183644  10.013765  14.097818  31.653321  26.92011  30.543674  -14.979485  -35.22333  28.457228  -83.584124  74.651098  -26.229333  39.258535  -30.261883  2.968117  9.220387  -22.74224  1.774559  7.081693  
0.0  89.887642  0.0  0.987558  -7.740046  -124.807297  6.367636  -10.989108  19.271221  -13.064443  11.02768  23.764432  -3.078286  1.57776  1.37889  20.134047  9.343814  -76.724646  -15.469515  4.189847  121.779209  7.018126  8.65911  2.520377  0.746375  -1.185884  3.957533  1.841484  -3.35318  10.78822  1.841484  -3.35318  10.78822  -20.065924  34.231666  13.806778  -148.392193  54.144253  -88.789572  -22.96102  -22.61533  45.0651  69.371024  15.790171  38.522917  9.921156  14.164087  31.46325  27.860707  30.810709  -15.131554  -35.1483  27.934105  -84.227838  75.604613  -25.719823  39.154696  -29.75727  2.938112  9.215065  -22.363378  1.75974  7.073094  
0.0  89.887642  0.0  1.240392  -8.702294  -124.311373  6.833068  -11.024784  18.784153  -12.598129  10.906298  23.736638  -3.191118  1.580261  1.359881  19.235896  8.967126  -76.426892  -14.961275  3.018598  123.172873  6.877176  8.732669  2.480917  0.745794  -1.132849  3.920055  1.85033  -3.207602  10.686661  1.85033  -3.207602  10.686661  -19.903306  33.828537  13.612003  -148.092411  53.825777  -88.880165  -23.010171  -23.009468  46.01603  69.267479  15.589549  37.912986  10.175912  14.097506  31.306821  28.895367  31.324774  -15.172897  -32.621169  25.879529  -85.111932  76.639602  -26.371895  41.912389  -28.998398  2.896047  9.229778  -21.793787  1.738667  7.077504  
0.0  89.887642  0.0  1.428077  -9.79167  -123.915284  7.230743  -11.100015  18.381021  -12.181121  10.772599  23.68071  -3.112839  1.626475  1.346138  18.395324  8.566581  -76.024427  -14.529513  1.97501  124.490707  6.764084  8.856791  2.497031  0.756428  -1.089421  3.926229  1.885982  -3.091135  10.703821  1.885982  -3.091135  10.703821  -19.827373  33.376234  13.242347  -147.20587  53.596749  -88.79945  -22.985597  -23.109118  47.135864  68.959152  15.428908  37.405857  10.255264  14.180497  30.834091  30.294888  31.767459  -15.100556  -32.451444  25.810313  -85.67023  77.304704  -26.500864  41.660825  -28.273328  2.743786  9.131181  -21.247555  1.639503  6.992046  
0.0  89.887642  0.0  1.568597  -10.595429  -123.531828  7.412354  -11.143786  18.021085  -11.929512  10.734543  23.52591  -2.946792  1.686349  1.354407  17.302052  8.38886  -75.498548  -14.189002  0.898317  125.803342  6.778566  9.013401  2.579869  0.696007  -1.029314  3.914938  1.731365  -2.917322  10.676805  1.731365  -2.917322  10.676804  -19.704272  32.934238  12.945272  -146.419217  53.375082  -88.844085  -23.003377  -23.303448  48.330347  68.572959  15.431984  36.974748  10.584276  14.231824  30.577437  31.78326  32.284813  -14.986381  -32.215082  25.416456  -86.126889  78.284002  -26.712671  41.375224  -27.284835  2.663135  9.105291  -20.505008  1.594583  6.963344  
